<svg xmlns="http://www.w3.org/2000/svg" id="a" viewBox="0 0 1000 280"><defs><style>.d{fill:#fff;}.e{fill:#458fcd;}</style></defs><g id="b"><g id="c"><g><path d="M328.56,49.31v35.95l-27.74-35.94h-7.49v55.4h10.72v-35.7l27.59,35.69h7.72V49.31h-10.8Z"></path><path d="M350.64,49.31v55.4h10.71V49.31h-10.71Z"></path><path d="M409.8,58.77v-9.46h-37.16v55.4h10.72v-22.69h25.06v-9.54h-25.02v-13.71h26.4Z"></path><path d="M412.56,49.31v9.54h17.65v45.86h10.79V58.85h17.64v-9.54h-46.08Z"></path><path d="M497.27,49.31l-13.08,21.52-13.09-21.52h-12.37l20,31.84v23.56h10.81v-24l19.94-31.37-12.21-.03Z"></path><path class="e" d="M293.33,170.26v58.5h11.31v-58.5h-11.31Z"></path><path class="e" d="M312.47,170.26v10.1h18.64v48.43h11.4v-48.43h18.63v-10.1h-48.67Z"></path><path d="M420.8,204.49c-.94-1.97-2.31-3.7-4-5.08-1.65-1.34-3.47-2.46-5.41-3.32-1.92-.87-3.89-1.63-5.9-2.29-1.84-.57-3.64-1.24-5.41-2-1.48-.6-2.84-1.48-4-2.58-1-1.07-1.53-2.5-1.44-3.96-.08-1.73,.75-3.38,2.2-4.33,1.87-1.1,4.03-1.62,6.2-1.5,2.11-.03,4.2,.42,6.11,1.33,2.01,1.05,3.8,2.46,5.29,4.17l7.49-7.49c-2.19-2.49-4.89-4.47-7.91-5.83-3.4-1.53-7.09-2.29-10.81-2.24-3.49-.07-6.95,.61-10.15,2-2.85,1.23-5.3,3.23-7.08,5.78-1.77,2.66-2.67,5.81-2.58,9-.09,2.57,.42,5.12,1.5,7.45,.93,1.89,2.29,3.54,3.95,4.83,1.67,1.26,3.48,2.31,5.41,3.12,2,.83,3.96,1.57,5.87,2.24,1.91,.67,3.72,1.38,5.41,2.13,1.51,.64,2.88,1.58,4,2.78,1.03,1.2,1.57,2.75,1.5,4.33,.04,1.96-.95,3.8-2.62,4.83-2.11,1.25-4.55,1.86-7,1.74-2.9,.1-5.78-.54-8.36-1.87-2.35-1.32-4.39-3.12-6-5.28l-7.42,7.52c2.43,3.06,5.5,5.55,9,7.29,3.82,1.68,7.97,2.49,12.15,2.37,6.67,0,11.91-1.54,15.73-4.62s5.73-7.37,5.74-12.86c.1-2.63-.4-5.25-1.46-7.66Z"></path><path d="M486.95,187.68c-1.51-3.59-3.7-6.86-6.45-9.61-2.76-2.76-6.04-4.93-9.65-6.4-3.79-1.55-7.85-2.33-11.94-2.29-4.08-.04-8.13,.74-11.9,2.29-3.6,1.48-6.86,3.65-9.61,6.4-2.74,2.74-4.92,5.99-6.41,9.57-3.07,7.59-3.07,16.08,0,23.67,1.51,3.6,3.71,6.87,6.49,9.61,5.72,5.69,13.48,8.85,21.55,8.78,16.77-.09,30.28-13.76,30.19-30.53-.02-3.94-.81-7.83-2.32-11.47l.05-.02Zm-11.69,22.09c-1.49,2.88-3.77,5.27-6.57,6.91-2.98,1.68-6.36,2.53-9.78,2.45-3.39,.07-6.74-.77-9.69-2.45-2.8-1.63-5.09-4.03-6.58-6.91-1.64-3.2-2.45-6.76-2.37-10.36-.07-3.53,.74-7.02,2.37-10.15,1.51-2.87,3.79-5.26,6.58-6.9,2.94-1.71,6.29-2.57,9.69-2.5,3.43-.08,6.81,.79,9.78,2.5,2.79,1.65,5.06,4.04,6.57,6.9,1.63,3.13,2.45,6.62,2.38,10.15,.08,3.6-.74,7.16-2.38,10.36Z"></path><path d="M509.58,218.72v-48.46h-11.31v58.5h38.1v-10.04h-26.79Z"></path><path d="M577.9,170.26v36.28c0,3.88-1.17,6.94-3.5,9.19-2.37,2.26-5.55,3.48-8.82,3.37-3.3,.1-6.51-1.13-8.9-3.41-2.45-2.43-3.75-5.78-3.58-9.23v-36.2h-11.31v35.86c-.08,4.22,.96,8.38,3,12.07,1.99,3.51,4.91,6.41,8.45,8.36,7.7,4.03,16.88,4.03,24.58,0,3.52-1.94,6.43-4.82,8.41-8.32,2.04-3.69,3.08-7.85,3-12.06v-35.91h-11.33Z"></path><path d="M595.7,170.26v10.1h18.64v48.43h11.4v-48.43h18.64v-10.1h-48.68Z"></path><path d="M652.2,170.26v58.5h11.32v-58.5h-11.32Z"></path><path d="M730.75,187.68c-1.51-3.59-3.7-6.85-6.45-9.61-2.76-2.76-6.04-4.93-9.65-6.4-3.79-1.55-7.85-2.33-11.94-2.29-4.08-.04-8.13,.74-11.9,2.29-3.6,1.47-6.86,3.65-9.61,6.4-2.74,2.74-4.92,5.99-6.41,9.57-4.79,11.39-2.21,24.55,6.53,33.28,5.72,5.69,13.48,8.85,21.55,8.78,8.03,.08,15.76-3.08,21.43-8.78,2.74-2.75,4.93-6,6.45-9.57,3.11-7.58,3.11-16.09,0-23.67h0Zm-11.69,22.09c-1.5,2.88-3.78,5.27-6.58,6.91-6.08,3.27-13.39,3.27-19.47,0-2.8-1.64-5.08-4.03-6.57-6.91-1.64-3.2-2.45-6.76-2.37-10.36-.07-3.53,.74-7.02,2.37-10.15,1.51-2.86,3.78-5.25,6.57-6.9,6.06-3.33,13.41-3.33,19.47,0,2.79,1.65,5.07,4.04,6.58,6.9,1.63,3.13,2.44,6.62,2.37,10.15,.08,3.6-.73,7.16-2.37,10.36Z"></path><path d="M779.26,170.26v38l-29.29-38h-7.91v58.5h11.32v-37.7l29.12,37.7h8.14v-58.5h-11.38Z"></path><path d="M830.09,218.72v-48.46h-11.31v58.5h38.1v-10.04h-26.79Z"></path><path d="M854.31,170.26v10.1h18.64v48.43h11.4v-48.43h18.63v-10.1h-48.67Z"></path><path d="M961.69,187.85c-1.49-3.49-3.67-6.65-6.41-9.28-2.79-2.65-6.06-4.73-9.65-6.12-3.82-1.47-7.89-2.22-11.99-2.19h-22.8v58.5h23c4.08,.05,8.14-.69,11.94-2.17,3.56-1.4,6.81-3.47,9.57-6.11,2.74-2.64,4.93-5.81,6.41-9.32,1.54-3.7,2.32-7.68,2.28-11.69,.02-3.99-.78-7.95-2.35-11.62Zm-11.74,21.8c-1.52,2.82-3.81,5.15-6.61,6.7-3.04,1.63-6.45,2.45-9.9,2.37h-11.32v-38.36h11.32c3.42-.07,6.8,.74,9.81,2.37,2.8,1.55,5.11,3.86,6.66,6.66,1.66,3.07,2.49,6.51,2.41,10,.09,3.57-.72,7.1-2.37,10.26Z"></path><path d="M981.36,217.8c-1.25-1.32-3-2.05-4.82-2-1.85-.06-3.63,.66-4.91,2-2.55,2.79-2.55,7.07,0,9.86,1.28,1.33,3.06,2.06,4.91,2,1.82,.04,3.57-.68,4.82-2,2.56-2.79,2.56-7.07,0-9.86Z"></path><rect class="e" x="45.5" y="44.7" width="190.61" height="190.61" rx="25.83" ry="25.83" transform="translate(-57.75 140.57) rotate(-45)"></rect><path class="d" d="M214.64,144.46v22.6c0,.66-.54,1.2-1.2,1.2h-10.8c-.55,0-1,.45-1,1v11.88c0,.64-.51,1.15-1.15,1.15h-11.7c-.64,0-1.15-.51-1.15-1.15h0v-12c0-.48-.39-.87-.87-.87h-11.93c-.66,0-1.2-.54-1.2-1.2h0v-22.61c0-.66,.54-1.2,1.2-1.2h11.6c.66,0,1.2,.54,1.2,1.2h0v10.93c0,.48,.39,.87,.87,.87h11.26c.48,0,.87-.39,.87-.87v-10.93c0-.66,.54-1.2,1.2-1.2h11.6c.66,0,1.2,.54,1.2,1.2h0Z"></path><rect class="d" x="124.64" y="134.26" width="17" height="10" rx="1.05" ry="1.05"></rect><rect class="d" x="124.64" y="149.26" width="17" height="33" rx="1.4" ry="1.4"></rect><path class="d" d="M167.64,105.37v14.78c0,.61,.5,1.11,1.11,1.11h20.2c.93,0,1.69,.76,1.69,1.69h0v13.62c0,.93-.76,1.69-1.69,1.69h-20.2c-.61,0-1.11,.5-1.11,1.11v39.78c0,1.72-1.39,3.11-3.11,3.11h-10.78c-1.72,0-3.11-1.39-3.11-3.11V105.37c0-.61-.5-1.11-1.11-1.11h-23.13c-.97,0-1.76-.79-1.76-1.76h0v-13.48c0-.97,.79-1.76,1.76-1.76h62.48c.97,0,1.76,.79,1.76,1.76h0v13.48c0,.97-.79,1.76-1.76,1.76h-20.13c-.61,0-1.11,.5-1.11,1.11Z"></path><path class="d" d="M141.64,111.86v13.8c0,.88-.72,1.6-1.6,1.6h-51.17c-1.23,0-2.23,1-2.23,2.23h0v51.17c0,.88-.72,1.6-1.6,1.6h-13.8c-.88,0-1.6-.72-1.6-1.6V111.86c0-.88,.72-1.6,1.6-1.6h68.8c.88,0,1.6,.72,1.6,1.6h0Z"></path></g></g></g></svg>